<svg width="41" height="70" viewBox="0 0 41 70" fill="none" xmlns="http://www.w3.org/2000/svg">
<rect x="1" y="1" width="38.3529" height="68" rx="5" fill="#E8F4FF" stroke="#026CC4" stroke-width="2"/>
<rect x="1" y="10.8823" width="38.3529" height="48.2353" fill="#F9FCFF" stroke="#026CC3" stroke-width="2"/>
<path d="M23.934 32.1577C24.3602 32.1577 24.7061 31.7798 24.7061 31.3141C24.7061 30.8484 24.3602 30.4705 23.934 30.4705H17.2431C16.8169 30.4705 16.4711 30.8484 16.4711 31.3141C16.4711 31.7798 16.8169 32.1577 17.2431 32.1577H19.5592C20.3725 32.1577 21.0538 32.7538 21.2762 33.5636H17.2431C16.8169 33.5636 16.4711 33.9416 16.4711 34.4072C16.4711 34.8729 16.8169 35.2509 17.2431 35.2509H21.0333C20.707 35.7594 20.1685 36.0945 19.5592 36.0945H17.2431C16.9046 36.0945 16.6049 36.3365 16.5052 36.6895C16.4053 37.0428 16.5278 37.4265 16.8077 37.6355L22.4693 41.8536C22.603 41.9527 22.7534 41.9999 22.9036 41.9999C23.1507 41.9999 23.3937 41.8718 23.5429 41.632C23.7817 41.2463 23.6922 40.7211 23.3401 40.4589L19.7394 37.7762C21.1445 37.6952 22.3088 36.6547 22.7276 35.2509H23.934C24.3602 35.2509 24.7061 34.8729 24.7061 34.4072C24.7061 33.9416 24.3602 33.5636 23.934 33.5636H22.8521C22.779 33.053 22.6154 32.576 22.3694 32.1577H23.934Z" fill="#026CC3"/>
<circle cx="20.1761" cy="35.8236" r="11.9412" stroke="#026CC4" stroke-width="2" stroke-linecap="round"/>
<path d="M4.9411 37.0588L8.23522 33.7647L11.5293 37.0588" stroke="#026CC4" stroke-width="2" stroke-linecap="round"/>
<path d="M35.4121 33.7648L32.118 37.059L28.8239 33.7648" stroke="#026CC4" stroke-width="2" stroke-linecap="round"/>
</svg>
