<svg width="52" height="69" viewBox="0 0 52 69" fill="none" xmlns="http://www.w3.org/2000/svg">
<path d="M33.8413 7.13148L34.5215 6.40646L33.8413 7.13148L43.1757 15.8879C43.9823 16.6445 44.439 17.6973 44.439 18.8018V62.9998C44.439 65.7612 42.2004 68 39.439 68H6.00001C3.23858 68 1 65.7614 1 63V11.0488C1 8.28736 3.23858 6.04878 6 6.04878H31.1047C32.1213 6.04878 33.0999 6.43591 33.8413 7.13148Z" fill="#E8F4FF" stroke="#026CC4" stroke-width="2"/>
<path d="M39.7316 2.0827L40.4117 1.35768L39.7316 2.0827L49.066 10.8391C49.8725 11.5957 50.3293 12.6485 50.3293 13.753V57.951C50.3293 60.7125 48.0907 62.9512 45.3293 62.9512H11.8903C9.12884 62.9512 6.89026 60.7126 6.89026 57.9512V6C6.89026 3.23858 9.12884 1 11.8903 1H36.9949C38.0116 1 38.9901 1.38713 39.7316 2.0827Z" fill="white" stroke="#026CC4" stroke-width="2"/>
<rect x="14.3049" y="31.9756" width="28.6098" height="1.68293" rx="0.841463" fill="#026CC3"/>
<rect x="14.3049" y="40.3902" width="28.6098" height="1.68293" rx="0.841463" fill="#026CC3"/>
<rect x="14.3049" y="48.8049" width="18.5122" height="1.68293" rx="0.841463" fill="#026CC3"/>
<rect x="14.3049" y="23.561" width="28.6098" height="1.68293" rx="0.841463" fill="#026CC3"/>
<rect x="14.3049" y="15.1463" width="28.6098" height="1.68293" rx="0.841463" fill="#026CC3"/>
</svg>
