<svg width="52" height="70" viewBox="0 0 52 70" fill="none" xmlns="http://www.w3.org/2000/svg">
<rect x="1" y="1" width="38.3529" height="68" rx="4" fill="#E8F4FF" stroke="#026CC4" stroke-width="2"/>
<rect x="1" y="10.8824" width="38.3529" height="48.2353" fill="#F9FCFF" stroke="#026CC3" stroke-width="2"/>
<rect x="7.41176" y="18.9412" width="25.5294" height="1.64706" fill="#0966B3"/>
<rect x="7.41176" y="23.8824" width="25.5294" height="1.64706" fill="#0966B3"/>
<rect x="7.41176" y="28.8235" width="25.5294" height="1.64706" fill="#0966B3"/>
<rect x="7.41176" y="33.7647" width="14" height="1.64706" fill="#0966B3"/>
<path fill-rule="evenodd" clip-rule="evenodd" d="M46.8891 20.3445C45.2431 19.5694 43.2806 20.2755 42.5055 21.9214L30.9284 46.5087L30.9288 46.5088L31.8041 52.382L36.8888 49.3151L36.889 49.3152L36.8891 49.3149L36.8893 49.3148L36.8892 49.3148L48.4661 24.728C49.2411 23.0821 48.5351 21.1195 46.8891 20.3445Z" fill="#E4F3FF"/>
<path d="M30.9284 46.5087L30.0237 46.0827L29.5977 46.9874L30.5024 47.4134L30.9284 46.5087ZM30.9288 46.5088L31.9179 46.3614L31.839 45.8321L31.3548 45.6041L30.9288 46.5088ZM31.8041 52.382L30.815 52.5294L31.0361 54.013L32.3206 53.2383L31.8041 52.382ZM36.8888 49.3151L37.3148 48.4104L36.8306 48.1824L36.3723 48.4588L36.8888 49.3151ZM36.889 49.3152L36.463 50.22L37.3677 50.646L37.7937 49.7412L36.889 49.3152ZM36.8891 49.3149L36.3745 48.4575L36.1139 48.614L35.9844 48.8889L36.8891 49.3149ZM36.8893 49.3148L37.4039 50.1722L39.0101 49.2081L37.3153 48.4101L36.8893 49.3148ZM36.8892 49.3148L35.9845 48.8888L35.5585 49.7935L36.4632 50.2195L36.8892 49.3148ZM43.4103 22.3474C43.95 21.2012 45.3168 20.7094 46.4631 21.2492L47.3151 19.4397C45.1695 18.4295 42.6111 19.3498 41.6008 21.4954L43.4103 22.3474ZM31.8332 46.9347L43.4103 22.3474L41.6008 21.4954L30.0237 46.0827L31.8332 46.9347ZM31.3548 45.6041L31.3544 45.6039L30.5024 47.4134L30.5028 47.4136L31.3548 45.6041ZM29.9397 46.6562L30.815 52.5294L32.7932 52.2346L31.9179 46.3614L29.9397 46.6562ZM32.3206 53.2383L37.4053 50.1714L36.3723 48.4588L31.2876 51.5257L32.3206 53.2383ZM37.315 48.4105L37.3148 48.4104L36.4628 50.2199L36.463 50.22L37.315 48.4105ZM35.9844 48.8889L35.9843 48.8892L37.7937 49.7412L37.7938 49.7409L35.9844 48.8889ZM37.4038 50.1723L37.4039 50.1722L36.3746 48.4574L36.3745 48.4575L37.4038 50.1723ZM37.3153 48.4101L37.3152 48.4101L36.4632 50.2195L36.4633 50.2196L37.3153 48.4101ZM47.5614 24.302L35.9845 48.8888L37.7939 49.7408L49.3708 25.154L47.5614 24.302ZM46.4631 21.2492C47.6094 21.7889 48.1011 23.1557 47.5614 24.302L49.3708 25.154C50.3811 23.0084 49.4607 20.45 47.3151 19.4397L46.4631 21.2492Z" fill="#0966B3"/>
<path d="M7.41176 56.0001C7.82363 52.0813 7.43399 48.0376 8.23529 44.059C8.27731 43.8774 9.05882 42.4118 9.47059 42.4118C9.88235 42.4118 10.4776 42.8237 10.5724 44.2184C10.7688 45.2906 10.3978 46.7207 10.4776 47.8166C10.5174 48.3627 10.5014 48.902 10.5724 49.4486C10.7199 50.584 11.1832 52.2433 11.866 53.0436C12.7617 54.0935 13.2749 53.435 13.8941 52.3814C14.3782 51.5577 14.6909 50.5572 14.9176 49.5846C14.9941 49.2568 15.203 47.359 15.6 47.249C15.8542 47.1785 16.2556 49.0915 16.3203 49.3303C16.5767 50.2781 16.8005 51.4315 17.3864 52.1626C17.6724 52.5194 18.2127 52.3978 18.5758 52.3223C19.172 52.1983 19.2612 51.7376 19.4382 51.0805C19.6339 50.3545 19.9683 49.0825 20.5091 48.6208C21.0345 48.1722 21.5755 50.0018 21.6132 50.4065C21.6964 51.2988 21.6088 52.3327 22.0918 53.0673C22.4977 53.6845 23.4137 54.3269 24.0725 54.0843C25.0329 53.7307 25.1176 49.8236 27.1765 49.4119C28.277 49.0001 28.8339 49.8236 28.6991 50.4065C28.4222 51.6042 28 52.2942 28.1098 52.9845C28.1794 53.4221 28.5829 53.3386 28.8206 53.4221C29.0251 53.4938 31.1127 53.4805 31.2941 53.4221" stroke="#026CC3" stroke-width="2" stroke-linecap="round" stroke-linejoin="round"/>
</svg>
